<svg version="1.1" id="Layer_1" xmlns="http://www.w3.org/2000/svg" xmlns:xlink="http://www.w3.org/1999/xlink" x="0px" y="0px"
	 width="100%" viewBox="0 0 900 900" enable-background="new 0 0 900 900" xml:space="preserve">
<path fill="#0E1118" opacity="1.000000" stroke="none" 
	d="
M1.000000,321.000000 
	C1.000000,214.000000 1.000000,107.500000 1.000000,1.000000 
	C301.000000,1.000000 601.000000,1.000000 901.000000,1.000000 
	C901.000000,301.000000 901.000000,601.000000 901.000000,901.000000 
	C601.000000,901.000000 301.000000,901.000000 1.000000,901.000000 
	C1.000000,707.833313 1.000000,514.666687 1.000000,321.000000 
M611.147644,736.663757 
	C744.203003,659.693726 806.521912,509.886078 766.884644,362.289490 
	C731.917664,232.083771 615.479370,134.848831 480.258545,122.808113 
	C419.303680,117.380386 361.113739,127.538750 306.220398,154.525864 
	C168.917542,222.027847 96.960861,370.817841 128.870804,520.322266 
	C158.800446,660.548584 280.094452,766.672241 423.601562,777.793091 
	C489.899017,782.930603 552.286926,769.345581 611.147644,736.663757 
M786.138611,25.228901 
	C778.498962,25.549831 770.735962,25.106396 763.239685,26.315935 
	C715.091003,34.084801 680.091064,77.303352 682.637207,125.367767 
	C685.290283,175.450607 723.673096,214.314072 773.405396,217.272598 
	C845.106689,221.538040 896.469727,147.205444 866.459778,81.926575 
	C850.978271,48.250725 823.907898,29.625847 786.138611,25.228901 
M835.137329,613.730042 
	C830.345581,623.557007 825.731018,633.476318 820.680908,643.168640 
	C818.441162,647.467224 819.663391,649.601685 823.771362,651.076843 
	C825.012390,651.522522 826.168823,652.773254 827.330627,652.731323 
	C828.927124,652.673828 831.158813,652.216187 831.961487,651.098877 
	C836.886658,644.243713 839.799377,636.311951 843.288452,628.692749 
	C844.530823,625.979919 845.848389,623.288208 846.854980,620.487366 
	C847.250305,619.387329 847.255066,617.087952 846.812927,616.912903 
	C843.169006,615.470337 839.378052,614.398926 835.137329,613.730042 
M255.629868,820.095398 
	C249.388336,818.256897 249.423828,824.017700 247.311188,827.070129 
	C245.790802,829.266846 246.310303,830.944275 248.932861,832.185913 
	C259.123047,837.010437 269.227661,842.015503 279.407959,846.861328 
	C280.353180,847.311218 282.352905,847.556213 282.599304,847.143005 
	C284.434265,844.065430 286.425964,840.916443 287.275177,837.516846 
	C287.528778,836.501648 284.532104,834.167480 282.634918,833.208923 
	C273.919952,828.805725 265.067017,824.675781 255.629868,820.095398 
M36.832302,324.063538 
	C34.616508,332.062225 32.341373,340.045074 30.203356,348.064484 
	C28.433512,354.702911 28.741146,355.084900 35.643475,356.405823 
	C36.295395,356.530579 37.001198,356.502808 37.601856,356.744781 
	C40.745144,358.010956 42.135559,356.647339 42.943096,353.649689 
	C45.662224,343.556305 48.530067,333.502991 51.335144,323.432709 
	C52.114235,320.635712 51.580769,318.511414 48.433098,317.642151 
	C46.831425,317.199799 45.222717,316.723816 43.698433,316.072784 
	C40.601753,314.750214 38.961155,315.958893 38.209377,318.972260 
	C37.847610,320.422363 37.467655,321.867950 36.832302,324.063538 
M537.001099,859.311401 
	C536.965698,862.206665 536.672058,865.127808 536.958984,867.990784 
	C537.334045,871.734192 539.374817,872.902466 543.228699,871.831482 
	C553.127075,869.080627 563.104797,866.609009 573.080811,864.147400 
	C576.729614,863.247131 578.452637,861.370667 576.656433,857.759277 
	C575.143127,854.716614 576.338867,848.996521 569.495300,850.935974 
	C558.980469,853.915894 548.307617,856.337891 537.001099,859.311401 
M41.808754,576.865173 
	C42.441135,576.660095 43.069271,576.440674 43.706547,576.252075 
	C50.214771,574.326355 50.247078,574.319763 48.597988,567.760864 
	C46.213909,558.278748 43.731190,548.821228 41.393867,539.327759 
	C40.719330,536.588013 39.443470,535.225281 36.488880,536.031616 
	C34.574013,536.554199 32.382912,536.556091 30.768997,537.537170 
	C29.435638,538.347717 27.704136,540.500671 27.968988,541.633179 
	C30.534990,552.605286 33.361866,563.523254 36.492744,574.347229 
	C36.856762,575.605652 39.511986,576.201294 41.808754,576.865173 
M867.684265,363.269501 
	C871.640686,362.621979 872.802734,360.657898 871.671814,356.613892 
	C868.990173,347.024841 866.740234,337.315765 864.239746,327.674957 
	C863.501648,324.828979 863.239807,321.541321 858.535767,322.946472 
	C850.296082,325.407806 849.541626,326.158020 851.044861,331.626801 
	C853.330933,339.943634 855.631470,348.264862 857.570984,356.666138 
	C859.355225,364.394653 859.148804,364.442322 867.684265,363.269501 
M428.265289,868.131531 
	C416.632812,866.882996 405.009857,865.519043 393.353699,864.557312 
	C392.133911,864.456787 390.282898,866.505615 389.513550,867.971252 
	C388.719025,869.484863 389.047791,871.544983 388.599396,873.292786 
	C387.824371,876.313477 389.184998,877.819824 391.955048,878.056519 
	C404.253723,879.107239 416.562317,880.041992 429.924988,881.102661 
	C429.495148,876.098816 429.178497,872.412354 428.265289,868.131531 
M352.380402,29.350271 
	C343.562561,31.641233 334.746674,33.939846 325.925751,36.218948 
	C322.893433,37.002426 321.760010,38.679699 323.086212,41.732037 
	C323.612762,42.944023 324.127777,44.226482 324.285370,45.521011 
	C324.751923,49.353477 326.745667,50.036034 330.224854,49.115086 
	C340.466797,46.404018 350.779541,43.959984 361.017120,41.233299 
	C362.225159,40.911545 363.791931,39.651966 364.080475,38.538898 
	C365.763245,32.047070 360.936737,27.147591 354.584564,28.654980 
	C354.101959,28.769503 353.640350,28.972466 352.380402,29.350271 
M510.666595,22.793781 
	C497.527832,19.983925 484.259064,19.254736 470.412140,19.928488 
	C470.412140,23.256119 470.053986,26.275017 470.572113,29.135172 
	C470.810242,30.449652 472.666992,32.311081 473.960236,32.461765 
	C484.623657,33.704227 495.319794,34.704174 506.027588,35.479855 
	C507.383392,35.578068 509.805603,34.206356 510.106354,33.080814 
	C510.939209,29.964064 510.911682,26.617413 510.666595,22.793781 
M879.957886,471.658203 
	C878.586121,471.230103 877.232178,470.506561 875.839661,470.422638 
	C867.836670,469.940308 867.712036,470.367645 867.298889,478.410370 
	C866.891907,486.334564 866.118896,494.259338 865.070251,502.125671 
	C864.052979,509.756561 863.809570,509.724121 871.228210,511.164185 
	C876.838562,512.253235 877.861389,511.741913 878.271301,506.168152 
	C879.096558,494.946289 879.599609,483.700775 879.957886,471.658203 
M580.245605,38.277786 
	C570.198242,35.481831 560.091919,32.877804 550.126099,29.816343 
	C544.352783,28.042784 544.550537,31.932386 543.535034,35.463123 
	C542.244263,39.951248 543.007996,42.391979 548.055542,43.592701 
	C557.877258,45.929119 567.524353,48.993950 577.323608,51.437000 
	C578.619629,51.760109 580.824646,50.586430 581.811279,49.427265 
	C582.911316,48.134960 582.945923,45.994495 583.718872,44.352501 
	C585.211670,41.181503 584.363403,39.283943 580.245605,38.277786 
M76.336494,249.179001 
	C69.395996,245.255844 69.205345,245.196091 65.695541,252.421722 
	C61.426193,261.211029 57.488480,270.160858 53.303459,278.992035 
	C51.926903,281.896820 52.435181,283.723053 55.611282,284.686401 
	C56.712727,285.020538 57.827541,285.461334 58.788315,286.082306 
	C62.888893,288.732635 64.794807,287.082916 66.577187,283.005646 
	C70.353622,274.366852 74.381493,265.810516 78.854034,257.515747 
	C80.894127,253.732178 80.907516,251.437546 76.336494,249.179001 
M20.369308,407.337982 
	C20.369308,414.588745 20.369308,421.839508 20.369308,429.589355 
	C23.232567,429.589355 26.262508,429.949310 29.132574,429.428436 
	C30.450033,429.189331 32.316151,427.319000 32.463619,426.021362 
	C33.680862,415.310669 34.694107,404.569489 35.357803,393.812164 
	C35.444214,392.411560 33.445019,390.476898 31.947071,389.508636 
	C30.685781,388.693329 28.698151,389.101685 27.120617,388.655334 
	C23.575144,387.652100 22.143614,389.396088 21.784254,392.545044 
	C21.257187,397.163574 20.838188,401.794434 20.369308,407.337982 
M357.251862,859.900940 
	C355.710114,858.863831 354.303345,857.363159 352.603699,856.868286 
	C344.323456,854.457275 335.929749,852.437012 327.643616,850.045105 
	C318.568176,847.425293 318.680450,847.337524 316.005188,856.421875 
	C315.171692,859.251953 315.630005,860.674561 318.690369,861.496033 
	C327.022644,863.732544 335.242737,866.387085 343.575623,868.620972 
	C355.699982,871.871216 354.345795,872.348206 357.251862,859.900940 
M649.594238,67.092903 
	C640.199219,62.583279 630.755188,58.171490 621.436890,53.508514 
	C618.364746,51.971169 615.927551,52.309620 615.208130,55.547894 
	C614.459473,58.917931 609.051331,62.828300 615.634033,65.993645 
	C625.174744,70.581406 634.645020,75.324638 644.304626,79.645439 
	C645.586670,80.218925 648.067749,79.073410 649.505798,78.043175 
	C650.734802,77.162720 651.312866,75.331032 652.090881,73.873138 
	C653.532715,71.171074 653.657227,68.797226 649.594238,67.092903 
M276.652222,54.325314 
	C271.062469,56.851257 265.434937,59.297379 259.892334,61.922859 
	C252.578140,65.387535 252.606781,65.448036 255.465210,72.803574 
	C257.277802,77.467873 258.855682,77.982521 263.366730,75.819901 
	C271.870239,71.743309 280.372498,67.652527 288.999084,63.848423 
	C294.865234,61.261585 294.959503,61.475327 292.513245,55.700668 
	C289.659058,48.962921 289.649200,48.937603 282.805420,51.606083 
	C280.954071,52.327950 279.182159,53.253593 276.652222,54.325314 
M868.650818,544.749634 
	C867.524353,544.482971 866.391724,544.239685 865.272400,543.945801 
	C858.060608,542.052185 858.137939,542.148193 856.304993,549.225769 
	C853.980591,558.200378 851.612549,567.182251 848.720886,575.982788 
	C847.437439,579.888855 848.492371,581.532715 852.023926,582.505066 
	C853.462830,582.901245 854.926575,583.297607 856.272400,583.923279 
	C859.199707,585.284058 860.621765,583.988098 861.394409,581.287231 
	C864.356262,570.934509 867.411499,560.606750 870.184998,550.203796 
	C870.584045,548.707397 869.631714,546.850586 868.650818,544.749634 
M847.695740,291.276123 
	C851.066772,290.169525 850.742249,288.188202 849.436157,285.469696 
	C845.278442,276.815857 841.289734,268.079468 837.327759,259.333344 
	C834.104431,252.217743 834.233459,252.339066 827.009766,255.776093 
	C823.599121,257.398895 821.971313,259.108643 823.820984,262.982788 
	C828.314819,272.394989 832.658325,281.879669 836.989197,291.368561 
	C838.172546,293.961456 839.818237,294.889008 842.501587,293.637238 
	C844.000916,292.937866 845.534546,292.312164 847.695740,291.276123 
M867.722778,432.723083 
	C868.774902,438.012390 869.261475,438.146820 880.895020,435.876831 
	C880.198792,424.001434 879.541321,411.969818 878.721497,399.949341 
	C878.630310,398.612885 877.619385,396.223083 877.028076,396.220947 
	C873.618530,396.208466 870.021362,396.264191 866.899902,397.414764 
	C865.853882,397.800354 865.585999,401.495544 865.705139,403.636566 
	C866.229370,413.052643 867.025269,422.453613 867.722778,432.723083 
M103.335236,215.918228 
	C107.458389,210.119034 111.380943,204.163315 115.753754,198.558914 
	C121.676964,190.967453 121.776382,191.143509 114.607811,185.375885 
	C111.924606,183.217056 109.734230,183.545380 107.871490,186.158157 
	C101.530487,195.052429 95.301361,204.026398 88.971268,212.928513 
	C87.234772,215.370590 87.702065,217.185745 90.109222,218.743958 
	C91.639267,219.734390 93.026596,221.349960 94.668312,221.652695 
	C96.410042,221.973877 98.625130,221.492325 100.168442,220.577118 
	C101.445000,219.820114 102.044395,217.921219 103.335236,215.918228 
M50.385658,609.738464 
	C50.413742,611.236145 50.000362,612.920166 50.541325,614.201294 
	C54.146435,622.739136 57.856369,631.236389 61.726120,639.657776 
	C65.593002,648.072937 66.446045,648.248108 74.471931,643.412964 
	C74.613930,643.327393 74.860069,643.283997 74.894867,643.170837 
	C75.385483,641.575195 76.684967,639.617981 76.182312,638.425415 
	C72.711357,630.190369 68.957108,622.069580 65.111534,613.998901 
	C60.669708,604.676941 60.588383,604.715698 50.385658,609.738464 
M607.507141,844.927490 
	C609.046753,847.179688 608.546692,852.091492 613.581116,849.865662 
	C623.567810,845.450500 633.468140,840.839050 643.471802,836.463501 
	C646.662903,835.067627 647.303162,833.136719 645.777039,830.195129 
	C645.090149,828.871216 644.346375,827.566162 643.790527,826.187195 
	C642.411682,822.766541 640.485046,822.515198 637.212402,824.117065 
	C628.446899,828.407776 619.605957,832.600647 610.548950,836.215942 
	C606.055603,838.009521 604.720642,840.018738 607.507141,844.927490 
M203.755722,787.784668 
	C201.849869,786.466614 199.818542,785.296326 198.060349,783.804260 
	C191.243134,778.018860 191.434875,778.113037 185.911270,784.764099 
	C183.014130,788.252625 183.627548,790.403442 187.114609,792.795288 
	C195.575775,798.599060 204.030319,804.427673 212.240128,810.576538 
	C216.444092,813.725159 218.100647,811.046204 219.969055,808.108887 
	C221.894592,805.081726 224.827530,802.249695 219.747818,799.078369 
	C214.424026,795.754761 209.467865,791.842285 203.755722,787.784668 
M467.419830,867.723877 
	C461.846405,869.467041 461.748108,869.825867 463.921722,879.304260 
	C475.515106,879.304260 486.964111,879.574707 498.391449,879.194031 
	C504.399078,878.993835 504.602600,877.856018 503.582092,869.397034 
	C502.995209,864.532043 499.756989,865.344910 496.560394,865.595032 
	C487.130371,866.332886 477.696045,867.016418 467.419830,867.723877 
M797.400635,682.851440 
	C792.331360,689.782227 787.331360,696.765137 782.169617,703.626404 
	C778.432617,708.593872 778.448486,709.258667 783.535278,712.986755 
	C784.200623,713.474304 784.813171,714.038818 785.420288,714.599915 
	C787.954529,716.942139 790.268127,716.448975 792.126953,713.842346 
	C798.460754,704.960266 804.770691,696.059143 810.905762,687.040161 
	C811.647888,685.949097 811.931335,683.680847 811.296997,682.661926 
	C807.743164,676.952820 801.487305,676.868713 797.400635,682.851440 
M98.943283,677.472595 
	C98.387833,676.645752 97.720482,675.872314 97.295845,674.983093 
	C95.242912,670.683716 92.438774,670.482910 88.971916,673.318970 
	C88.202698,673.948181 87.403236,674.601807 86.510132,675.007141 
	C83.131218,676.540527 83.257530,678.617065 85.154366,681.355469 
	C90.729492,689.403931 96.141289,697.565491 101.719063,705.612122 
	C106.057693,711.871094 106.125725,711.824036 112.259483,706.950684 
	C112.648819,706.641357 112.997742,706.258301 113.428665,706.027710 
	C116.553246,704.355347 116.499611,702.360962 114.522156,699.639404 
	C109.355995,692.529297 104.384300,685.277832 98.943283,677.472595 
M31.736277,465.084137 
	C28.321123,459.945160 23.927591,464.970612 20.742725,463.507538 
	C20.742725,475.691284 20.463905,487.421844 20.867395,499.128845 
	C21.052517,504.500061 22.283941,504.664917 30.786606,503.649567 
	C34.944885,503.153046 34.776375,500.331604 34.557465,497.445648 
	C33.757572,486.900391 32.884884,476.360626 31.736277,465.084137 
M681.079834,798.666748 
	C679.684875,799.570007 678.282410,800.461975 676.896179,801.378479 
	C669.950562,805.970093 670.163879,805.842102 674.473755,812.847473 
	C676.672302,816.421082 678.534302,817.082886 681.895935,814.448059 
	C685.024597,811.995667 688.552734,810.060547 691.810364,807.763428 
	C697.364075,803.847290 702.852600,799.838501 708.349731,795.842773 
	C710.504395,794.276672 710.832703,792.482849 708.941528,790.410278 
	C708.163757,789.557800 707.398376,788.637207 706.873474,787.620483 
	C704.542786,783.105591 701.875122,783.590088 698.268250,786.398071 
	C692.908447,790.570679 687.193115,794.286560 681.079834,798.666748 
M223.527100,84.673759 
	C221.891617,84.856560 219.909073,84.506142 218.676682,85.308258 
	C210.358490,90.722198 202.140060,96.295753 194.008179,101.987465 
	C188.090973,106.129059 188.499908,106.333916 192.837936,112.262436 
	C195.853287,116.383339 198.034729,116.483757 201.889343,113.497688 
	C208.154205,108.644470 214.808914,104.287712 221.368546,99.823456 
	C230.008942,93.943100 230.037811,93.985527 223.527100,84.673759 
M424.468628,19.718637 
	C417.836823,19.940107 411.202850,20.111391 404.573761,20.395811 
	C396.368469,20.747852 395.990967,21.427555 396.295166,29.581766 
	C396.445190,33.602154 398.182220,34.908222 401.870819,34.618462 
	C412.113129,33.813862 422.370453,33.169563 432.590881,32.151272 
	C434.166321,31.994310 436.683441,30.346254 436.846954,29.129890 
	C437.246796,26.155811 436.523804,23.030764 436.230804,19.718672 
	C432.398712,19.718672 428.923645,19.718672 424.468628,19.718637 
M146.674652,142.158203 
	C142.323807,146.923660 137.972946,151.689102 133.283234,156.825729 
	C134.923386,158.702179 136.353271,160.500732 137.952560,162.133331 
	C141.127213,165.374100 143.951477,165.690918 147.418304,161.949539 
	C154.061783,154.779968 161.036072,147.899063 168.141708,141.182526 
	C172.228027,137.319962 169.192825,135.158569 166.822327,132.599030 
	C164.417419,130.002350 162.326263,127.019608 158.500458,131.169220 
	C155.020477,134.943756 151.031845,138.249329 146.674652,142.158203 
M148.864197,739.648621 
	C146.154419,736.938477 143.320068,734.339294 140.774124,731.483093 
	C138.723541,729.182556 136.787720,729.418945 134.733337,731.154541 
	C133.337723,732.333496 132.208496,733.838623 130.771927,734.955811 
	C128.285004,736.889893 128.630951,738.732605 130.552277,740.774048 
	C138.842438,749.582703 147.115494,758.407532 155.394760,767.226440 
	C157.277847,765.937500 158.078354,765.676880 158.730255,765.209167 
	C166.257477,759.808960 166.225723,755.768188 159.152588,749.944824 
	C155.606567,747.025391 152.609955,743.438660 148.864197,739.648621 
M754.357605,756.859863 
	C758.318054,752.420898 762.278564,747.981934 766.833679,742.876587 
	C763.690796,740.036072 760.613281,737.254700 757.333984,734.290894 
	C755.546997,735.748962 754.052612,736.784363 752.776611,738.041382 
	C747.244202,743.491760 741.696594,748.930481 736.301636,754.515625 
	C727.659119,763.462769 726.345947,760.736938 736.762207,770.833984 
	C736.974915,771.040161 737.363281,771.065125 738.167297,771.352539 
	C743.267822,766.802612 748.558716,762.082764 754.357605,756.859863 
z"/>
<path fill="#EFEFEF" opacity="1.000000" stroke="none" 
	d="
M610.818848,736.830139 
	C552.286926,769.345581 489.899017,782.930603 423.601562,777.793091 
	C280.094452,766.672241 158.800446,660.548584 128.870804,520.322266 
	C96.960861,370.817841 168.917542,222.027847 306.220398,154.525864 
	C361.113739,127.538750 419.303680,117.380386 480.258545,122.808113 
	C615.479370,134.848831 731.917664,232.083771 766.884644,362.289490 
	C806.521912,509.886078 744.203003,659.693726 610.818848,736.830139 
M578.135254,217.304214 
	C572.041077,218.029419 565.762573,218.055542 559.885742,219.605087 
	C538.449585,225.257141 520.816467,237.246933 507.809235,254.989075 
	C495.810425,271.355804 487.905365,289.602234 489.596863,310.722687 
	C489.781982,313.034149 489.452942,315.383209 489.569458,317.704468 
	C489.846436,323.222107 489.624207,328.860199 490.714142,334.223969 
	C494.136932,351.067596 501.768005,365.663483 513.198486,378.807251 
	C522.108154,389.052368 532.546753,396.473267 544.443848,402.268066 
	C557.437256,408.596832 571.126648,411.762878 585.690857,410.749664 
	C592.558838,410.271881 599.644165,411.109497 606.302002,409.745361 
	C630.285400,404.831268 649.874878,392.269470 664.526917,372.756958 
	C681.067932,350.728882 686.875488,325.585510 682.932983,298.438477 
	C679.383484,273.997375 667.126160,254.018463 648.527466,238.253418 
	C635.825439,227.486710 621.014709,220.250626 604.216553,217.913483 
	C600.568970,217.405975 596.891602,216.978516 593.215759,216.840454 
	C588.422791,216.660400 583.617676,216.805588 578.135254,217.304214 
M585.524841,488.031677 
	C588.691589,486.020264 591.630493,483.409668 595.065430,482.103821 
	C608.091919,477.151642 621.147034,477.976440 633.934265,483.201233 
	C642.909668,486.868561 647.519714,496.229889 645.829163,509.146698 
	C644.798401,517.022339 638.356750,519.763000 631.251831,520.919800 
	C624.883728,521.956665 618.515198,522.992859 612.139526,523.981812 
	C603.597595,525.306763 594.992737,526.299988 586.516235,527.954712 
	C575.098206,530.183716 563.881897,533.670532 555.533752,542.141724 
	C543.278076,554.578247 541.510742,570.269409 544.349915,586.634277 
	C545.854614,595.307068 550.076904,602.320679 556.796631,608.807190 
	C566.132324,617.818909 576.526978,621.718201 588.953430,621.756165 
	C593.355652,621.769592 597.765747,621.701477 602.158997,621.443481 
	C606.328186,621.198608 610.581604,621.096558 614.620361,620.163330 
	C626.981995,617.307068 637.209717,610.413452 646.853638,602.025330 
	C647.985107,605.310852 648.783813,608.489807 650.143555,611.407349 
	C653.401733,618.398438 661.163208,622.549744 668.777405,621.858948 
	C675.587280,621.241150 682.423218,620.892456 689.219727,620.164551 
	C690.259399,620.053284 691.942383,618.568359 691.978882,617.664246 
	C692.224976,611.573547 692.107178,605.468140 692.107178,598.882751 
	C689.768616,598.882751 688.090881,598.621460 686.523071,598.926147 
	C677.815430,600.618164 672.376831,592.525391 672.405884,584.649658 
	C672.507385,557.154419 672.418030,529.658569 672.472168,502.163086 
	C672.480286,498.024597 673.532227,493.792664 672.962219,489.765198 
	C670.633850,473.313354 660.531921,463.233307 645.312195,457.892181 
	C635.823608,454.562256 626.027222,454.012451 615.947083,454.200500 
	C604.081970,454.421906 592.429321,454.158905 581.064148,458.712036 
	C566.061462,464.722504 554.784668,473.753357 551.703857,490.531372 
	C550.978516,494.481537 550.428406,498.466827 549.902588,502.449799 
	C549.451172,505.869354 550.999817,507.257446 554.488098,507.163483 
	C560.815857,506.993103 567.152954,507.032654 573.483093,507.151245 
	C576.486572,507.207458 577.429199,506.158081 578.331970,503.064209 
	C579.808777,498.002869 582.710938,493.357483 585.524841,488.031677 
M413.118164,555.499512 
	C413.118164,540.506714 413.118164,525.513855 413.118134,510.521027 
	C413.118134,494.528687 413.165222,478.535980 413.042358,462.544586 
	C413.030579,461.012054 412.005920,458.179657 411.373535,458.157318 
	C402.980865,457.860962 394.574249,457.959503 386.123871,457.959503 
	C386.280334,461.100220 386.493713,463.396484 386.494324,465.692780 
	C386.504425,503.341339 386.499756,540.989929 386.453735,578.638489 
	C386.450104,581.607666 385.627014,584.643616 386.023376,587.533569 
	C387.537170,598.569946 393.939880,606.772095 402.518860,613.210022 
	C411.961426,620.296021 422.872620,621.924500 434.606964,622.021606 
	C447.801941,622.130737 460.370728,621.085938 471.162506,612.920776 
	C476.856842,608.612488 481.852051,603.380188 487.243408,598.492126 
	C487.243408,603.977356 487.243408,609.656921 487.243408,616.129578 
	C493.724487,616.129578 500.160889,615.885986 506.568207,616.212280 
	C511.082977,616.442200 512.233398,614.683594 512.198425,610.410339 
	C512.023804,589.088684 512.117859,567.764771 512.118286,546.441650 
	C512.118774,518.621643 512.028381,490.801025 512.218201,462.982361 
	C512.247314,458.711090 510.939667,457.541046 506.843079,457.801605 
	C501.367706,458.149933 495.832825,458.190277 490.362610,457.806061 
	C485.395599,457.457245 483.725708,459.002228 483.769318,464.183655 
	C484.006226,492.334839 483.923218,520.489136 483.837311,548.642090 
	C483.824432,552.865662 483.596558,557.159058 482.817474,561.297729 
	C479.178589,580.628723 466.410187,599.046692 441.356903,597.979492 
	C428.412872,597.428162 416.423126,589.378418 414.273773,577.227478 
	C413.076965,570.461609 413.451660,563.417725 413.118164,555.499512 
M226.239120,419.499939 
	C226.239120,484.904205 226.239120,550.308472 226.239120,615.649414 
	C271.747955,615.649414 316.778076,615.649414 361.436462,615.649414 
	C361.436462,606.757507 361.436462,598.344788 361.436462,589.499573 
	C326.079895,589.499573 291.313263,589.499573 256.121643,589.499573 
	C256.121643,587.263367 256.121643,585.457825 256.121613,583.652222 
	C256.121124,523.824951 256.120941,463.997650 256.118622,404.170349 
	C256.118561,402.671051 256.399658,401.079987 255.984238,399.702179 
	C255.664673,398.642273 254.471298,397.076141 253.638840,397.058746 
	C244.548935,396.868927 235.453583,396.939850 226.239120,396.939850 
	C226.239120,404.591949 226.239120,411.545959 226.239120,419.499939 
z"/>
<path fill="#EFEFEF" opacity="1.000000" stroke="none" 
	d="
M786.599121,25.270885 
	C823.907898,29.625847 850.978271,48.250725 866.459778,81.926575 
	C896.469727,147.205444 845.106689,221.538040 773.405396,217.272598 
	C723.673096,214.314072 685.290283,175.450607 682.637207,125.367767 
	C680.091064,77.303352 715.091003,34.084801 763.239685,26.315935 
	C770.735962,25.106396 778.498962,25.549831 786.599121,25.270885 
z"/>
<path fill="#F9F9F9" opacity="1.000000" stroke="none" 
	d="
M835.384521,613.472534 
	C839.378052,614.398926 843.169006,615.470337 846.812927,616.912903 
	C847.255066,617.087952 847.250305,619.387329 846.854980,620.487366 
	C845.848389,623.288208 844.530823,625.979919 843.288452,628.692749 
	C839.799377,636.311951 836.886658,644.243713 831.961487,651.098877 
	C831.158813,652.216187 828.927124,652.673828 827.330627,652.731323 
	C826.168823,652.773254 825.012390,651.522522 823.771362,651.076843 
	C819.663391,649.601685 818.441162,647.467224 820.680908,643.168640 
	C825.731018,633.476318 830.345581,623.557007 835.384521,613.472534 
z"/>
<path fill="#F9F9F9" opacity="1.000000" stroke="none" 
	d="
M255.946747,820.271545 
	C265.067017,824.675781 273.919952,828.805725 282.634918,833.208923 
	C284.532104,834.167480 287.528778,836.501648 287.275177,837.516846 
	C286.425964,840.916443 284.434265,844.065430 282.599304,847.143005 
	C282.352905,847.556213 280.353180,847.311218 279.407959,846.861328 
	C269.227661,842.015503 259.123047,837.010437 248.932861,832.185913 
	C246.310303,830.944275 245.790802,829.266846 247.311188,827.070129 
	C249.423828,824.017700 249.388336,818.256897 255.946747,820.271545 
z"/>
<path fill="#F6F6F6" opacity="1.000000" stroke="none" 
	d="
M36.964119,323.689575 
	C37.467655,321.867950 37.847610,320.422363 38.209377,318.972260 
	C38.961155,315.958893 40.601753,314.750214 43.698433,316.072784 
	C45.222717,316.723816 46.831425,317.199799 48.433098,317.642151 
	C51.580769,318.511414 52.114235,320.635712 51.335144,323.432709 
	C48.530067,333.502991 45.662224,343.556305 42.943096,353.649689 
	C42.135559,356.647339 40.745144,358.010956 37.601856,356.744781 
	C37.001198,356.502808 36.295395,356.530579 35.643475,356.405823 
	C28.741146,355.084900 28.433512,354.702911 30.203356,348.064484 
	C32.341373,340.045074 34.616508,332.062225 36.964119,323.689575 
z"/>
<path fill="#F6F6F6" opacity="1.000000" stroke="none" 
	d="
M537.351440,859.153992 
	C548.307617,856.337891 558.980469,853.915894 569.495300,850.935974 
	C576.338867,848.996521 575.143127,854.716614 576.656433,857.759277 
	C578.452637,861.370667 576.729614,863.247131 573.080811,864.147400 
	C563.104797,866.609009 553.127075,869.080627 543.228699,871.831482 
	C539.374817,872.902466 537.334045,871.734192 536.958984,867.990784 
	C536.672058,865.127808 536.965698,862.206665 537.351440,859.153992 
z"/>
<path fill="#F6F6F6" opacity="1.000000" stroke="none" 
	d="
M41.456867,576.984741 
	C39.511986,576.201294 36.856762,575.605652 36.492744,574.347229 
	C33.361866,563.523254 30.534990,552.605286 27.968988,541.633179 
	C27.704136,540.500671 29.435638,538.347717 30.768997,537.537170 
	C32.382912,536.556091 34.574013,536.554199 36.488880,536.031616 
	C39.443470,535.225281 40.719330,536.588013 41.393867,539.327759 
	C43.731190,548.821228 46.213909,558.278748 48.597988,567.760864 
	C50.247078,574.319763 50.214771,574.326355 43.706547,576.252075 
	C43.069271,576.440674 42.441135,576.660095 41.456867,576.984741 
z"/>
<path fill="#F5F5F5" opacity="1.000000" stroke="none" 
	d="
M867.316650,363.376648 
	C859.148804,364.442322 859.355225,364.394653 857.570984,356.666138 
	C855.631470,348.264862 853.330933,339.943634 851.044861,331.626801 
	C849.541626,326.158020 850.296082,325.407806 858.535767,322.946472 
	C863.239807,321.541321 863.501648,324.828979 864.239746,327.674957 
	C866.740234,337.315765 868.990173,347.024841 871.671814,356.613892 
	C872.802734,360.657898 871.640686,362.621979 867.316650,363.376648 
z"/>
<path fill="#F4F5F5" opacity="1.000000" stroke="none" 
	d="
M428.563538,868.428711 
	C429.178497,872.412354 429.495148,876.098816 429.924988,881.102661 
	C416.562317,880.041992 404.253723,879.107239 391.955048,878.056519 
	C389.184998,877.819824 387.824371,876.313477 388.599396,873.292786 
	C389.047791,871.544983 388.719025,869.484863 389.513550,867.971252 
	C390.282898,866.505615 392.133911,864.456787 393.353699,864.557312 
	C405.009857,865.519043 416.632812,866.882996 428.563538,868.428711 
z"/>
<path fill="#F6F6F6" opacity="1.000000" stroke="none" 
	d="
M352.774689,29.242296 
	C353.640350,28.972466 354.101959,28.769503 354.584564,28.654980 
	C360.936737,27.147591 365.763245,32.047070 364.080475,38.538898 
	C363.791931,39.651966 362.225159,40.911545 361.017120,41.233299 
	C350.779541,43.959984 340.466797,46.404018 330.224854,49.115086 
	C326.745667,50.036034 324.751923,49.353477 324.285370,45.521011 
	C324.127777,44.226482 323.612762,42.944023 323.086212,41.732037 
	C321.760010,38.679699 322.893433,37.002426 325.925751,36.218948 
	C334.746674,33.939846 343.562561,31.641233 352.774689,29.242296 
z"/>
<path fill="#F5F5F5" opacity="1.000000" stroke="none" 
	d="
M510.945404,23.077705 
	C510.911682,26.617413 510.939209,29.964064 510.106354,33.080814 
	C509.805603,34.206356 507.383392,35.578068 506.027588,35.479855 
	C495.319794,34.704174 484.623657,33.704227 473.960236,32.461765 
	C472.666992,32.311081 470.810242,30.449652 470.572113,29.135172 
	C470.053986,26.275017 470.412140,23.256119 470.412140,19.928488 
	C484.259064,19.254736 497.527832,19.983925 510.945404,23.077705 
z"/>
<path fill="#F4F4F4" opacity="1.000000" stroke="none" 
	d="
M880.096741,472.061584 
	C879.599609,483.700775 879.096558,494.946289 878.271301,506.168152 
	C877.861389,511.741913 876.838562,512.253235 871.228210,511.164185 
	C863.809570,509.724121 864.052979,509.756561 865.070251,502.125671 
	C866.118896,494.259338 866.891907,486.334564 867.298889,478.410370 
	C867.712036,470.367645 867.836670,469.940308 875.839661,470.422638 
	C877.232178,470.506561 878.586121,471.230103 880.096741,472.061584 
z"/>
<path fill="#F5F5F6" opacity="1.000000" stroke="none" 
	d="
M580.604248,38.390167 
	C584.363403,39.283943 585.211670,41.181503 583.718872,44.352501 
	C582.945923,45.994495 582.911316,48.134960 581.811279,49.427265 
	C580.824646,50.586430 578.619629,51.760109 577.323608,51.437000 
	C567.524353,48.993950 557.877258,45.929119 548.055542,43.592701 
	C543.007996,42.391979 542.244263,39.951248 543.535034,35.463123 
	C544.550537,31.932386 544.352783,28.042784 550.126099,29.816343 
	C560.091919,32.877804 570.198242,35.481831 580.604248,38.390167 
z"/>
<path fill="#F9F9F9" opacity="1.000000" stroke="none" 
	d="
M76.609131,249.411301 
	C80.907516,251.437546 80.894127,253.732178 78.854034,257.515747 
	C74.381493,265.810516 70.353622,274.366852 66.577187,283.005646 
	C64.794807,287.082916 62.888893,288.732635 58.788315,286.082306 
	C57.827541,285.461334 56.712727,285.020538 55.611282,284.686401 
	C52.435181,283.723053 51.926903,281.896820 53.303459,278.992035 
	C57.488480,270.160858 61.426193,261.211029 65.695541,252.421722 
	C69.205345,245.196091 69.395996,245.255844 76.609131,249.411301 
z"/>
<path fill="#F4F4F5" opacity="1.000000" stroke="none" 
	d="
M20.371225,406.879028 
	C20.838188,401.794434 21.257187,397.163574 21.784254,392.545044 
	C22.143614,389.396088 23.575144,387.652100 27.120617,388.655334 
	C28.698151,389.101685 30.685781,388.693329 31.947071,389.508636 
	C33.445019,390.476898 35.444214,392.411560 35.357803,393.812164 
	C34.694107,404.569489 33.680862,415.310669 32.463619,426.021362 
	C32.316151,427.319000 30.450033,429.189331 29.132574,429.428436 
	C26.262508,429.949310 23.232567,429.589355 20.369308,429.589355 
	C20.369308,421.839508 20.369308,414.588745 20.371225,406.879028 
z"/>
<path fill="#F6F6F6" opacity="1.000000" stroke="none" 
	d="
M357.232056,860.266113 
	C354.345795,872.348206 355.699982,871.871216 343.575623,868.620972 
	C335.242737,866.387085 327.022644,863.732544 318.690369,861.496033 
	C315.630005,860.674561 315.171692,859.251953 316.005188,856.421875 
	C318.680450,847.337524 318.568176,847.425293 327.643616,850.045105 
	C335.929749,852.437012 344.323456,854.457275 352.603699,856.868286 
	C354.303345,857.363159 355.710114,858.863831 357.232056,860.266113 
z"/>
<path fill="#F9F9F9" opacity="1.000000" stroke="none" 
	d="
M649.920654,67.280434 
	C653.657227,68.797226 653.532715,71.171074 652.090881,73.873138 
	C651.312866,75.331032 650.734802,77.162720 649.505798,78.043175 
	C648.067749,79.073410 645.586670,80.218925 644.304626,79.645439 
	C634.645020,75.324638 625.174744,70.581406 615.634033,65.993645 
	C609.051331,62.828300 614.459473,58.917931 615.208130,55.547894 
	C615.927551,52.309620 618.364746,51.971169 621.436890,53.508514 
	C630.755188,58.171490 640.199219,62.583279 649.920654,67.280434 
z"/>
<path fill="#F9F9F9" opacity="1.000000" stroke="none" 
	d="
M277.013000,54.205505 
	C279.182159,53.253593 280.954071,52.327950 282.805420,51.606083 
	C289.649200,48.937603 289.659058,48.962921 292.513245,55.700668 
	C294.959503,61.475327 294.865234,61.261585 288.999084,63.848423 
	C280.372498,67.652527 271.870239,71.743309 263.366730,75.819901 
	C258.855682,77.982521 257.277802,77.467873 255.465210,72.803574 
	C252.606781,65.448036 252.578140,65.387535 259.892334,61.922859 
	C265.434937,59.297379 271.062469,56.851257 277.013000,54.205505 
z"/>
<path fill="#F6F6F6" opacity="1.000000" stroke="none" 
	d="
M868.977783,544.955078 
	C869.631714,546.850586 870.584045,548.707397 870.184998,550.203796 
	C867.411499,560.606750 864.356262,570.934509 861.394409,581.287231 
	C860.621765,583.988098 859.199707,585.284058 856.272400,583.923279 
	C854.926575,583.297607 853.462830,582.901245 852.023926,582.505066 
	C848.492371,581.532715 847.437439,579.888855 848.720886,575.982788 
	C851.612549,567.182251 853.980591,558.200378 856.304993,549.225769 
	C858.137939,542.148193 858.060608,542.052185 865.272400,543.945801 
	C866.391724,544.239685 867.524353,544.482971 868.977783,544.955078 
z"/>
<path fill="#F9F9F9" opacity="1.000000" stroke="none" 
	d="
M847.374207,291.464661 
	C845.534546,292.312164 844.000916,292.937866 842.501587,293.637238 
	C839.818237,294.889008 838.172546,293.961456 836.989197,291.368561 
	C832.658325,281.879669 828.314819,272.394989 823.820984,262.982788 
	C821.971313,259.108643 823.599121,257.398895 827.009766,255.776093 
	C834.233459,252.339066 834.104431,252.217743 837.327759,259.333344 
	C841.289734,268.079468 845.278442,276.815857 849.436157,285.469696 
	C850.742249,288.188202 851.066772,290.169525 847.374207,291.464661 
z"/>
<path fill="#F7F7F7" opacity="1.000000" stroke="none" 
	d="
M867.722717,432.291565 
	C867.025269,422.453613 866.229370,413.052643 865.705139,403.636566 
	C865.585999,401.495544 865.853882,397.800354 866.899902,397.414764 
	C870.021362,396.264191 873.618530,396.208466 877.028076,396.220947 
	C877.619385,396.223083 878.630310,398.612885 878.721497,399.949341 
	C879.541321,411.969818 880.198792,424.001434 880.895020,435.876831 
	C869.261475,438.146820 868.774902,438.012390 867.722717,432.291565 
z"/>
<path fill="#F7F7F7" opacity="1.000000" stroke="none" 
	d="
M103.139526,216.223236 
	C102.044395,217.921219 101.445000,219.820114 100.168442,220.577118 
	C98.625130,221.492325 96.410042,221.973877 94.668312,221.652695 
	C93.026596,221.349960 91.639267,219.734390 90.109222,218.743958 
	C87.702065,217.185745 87.234772,215.370590 88.971268,212.928513 
	C95.301361,204.026398 101.530487,195.052429 107.871490,186.158157 
	C109.734230,183.545380 111.924606,183.217056 114.607811,185.375885 
	C121.776382,191.143509 121.676964,190.967453 115.753754,198.558914 
	C111.380943,204.163315 107.458389,210.119034 103.139526,216.223236 
z"/>
<path fill="#F9F9F9" opacity="1.000000" stroke="none" 
	d="
M50.685505,609.534058 
	C60.588383,604.715698 60.669708,604.676941 65.111534,613.998901 
	C68.957108,622.069580 72.711357,630.190369 76.182312,638.425415 
	C76.684967,639.617981 75.385483,641.575195 74.894867,643.170837 
	C74.860069,643.283997 74.613930,643.327393 74.471931,643.412964 
	C66.446045,648.248108 65.593002,648.072937 61.726120,639.657776 
	C57.856369,631.236389 54.146435,622.739136 50.541325,614.201294 
	C50.000362,612.920166 50.413742,611.236145 50.685505,609.534058 
z"/>
<path fill="#F9F9F9" opacity="1.000000" stroke="none" 
	d="
M607.388916,844.557129 
	C604.720642,840.018738 606.055603,838.009521 610.548950,836.215942 
	C619.605957,832.600647 628.446899,828.407776 637.212402,824.117065 
	C640.485046,822.515198 642.411682,822.766541 643.790527,826.187195 
	C644.346375,827.566162 645.090149,828.871216 645.777039,830.195129 
	C647.303162,833.136719 646.662903,835.067627 643.471802,836.463501 
	C633.468140,840.839050 623.567810,845.450500 613.581116,849.865662 
	C608.546692,852.091492 609.046753,847.179688 607.388916,844.557129 
z"/>
<path fill="#F7F7F7" opacity="1.000000" stroke="none" 
	d="
M204.053375,787.985962 
	C209.467865,791.842285 214.424026,795.754761 219.747818,799.078369 
	C224.827530,802.249695 221.894592,805.081726 219.969055,808.108887 
	C218.100647,811.046204 216.444092,813.725159 212.240128,810.576538 
	C204.030319,804.427673 195.575775,798.599060 187.114609,792.795288 
	C183.627548,790.403442 183.014130,788.252625 185.911270,784.764099 
	C191.434875,778.113037 191.243134,778.018860 198.060349,783.804260 
	C199.818542,785.296326 201.849869,786.466614 204.053375,787.985962 
z"/>
<path fill="#F6F6F7" opacity="1.000000" stroke="none" 
	d="
M467.841614,867.722595 
	C477.696045,867.016418 487.130371,866.332886 496.560394,865.595032 
	C499.756989,865.344910 502.995209,864.532043 503.582092,869.397034 
	C504.602600,877.856018 504.399078,878.993835 498.391449,879.194031 
	C486.964111,879.574707 475.515106,879.304260 463.921722,879.304260 
	C461.748108,869.825867 461.846405,869.467041 467.841614,867.722595 
z"/>
<path fill="#F7F7F7" opacity="1.000000" stroke="none" 
	d="
M797.593140,682.547119 
	C801.487305,676.868713 807.743164,676.952820 811.296997,682.661926 
	C811.931335,683.680847 811.647888,685.949097 810.905762,687.040161 
	C804.770691,696.059143 798.460754,704.960266 792.126953,713.842346 
	C790.268127,716.448975 787.954529,716.942139 785.420288,714.599915 
	C784.813171,714.038818 784.200623,713.474304 783.535278,712.986755 
	C778.448486,709.258667 778.432617,708.593872 782.169617,703.626404 
	C787.331360,696.765137 792.331360,689.782227 797.593140,682.547119 
z"/>
<path fill="#F7F7F7" opacity="1.000000" stroke="none" 
	d="
M99.139175,677.777710 
	C104.384300,685.277832 109.355995,692.529297 114.522156,699.639404 
	C116.499611,702.360962 116.553246,704.355347 113.428665,706.027710 
	C112.997742,706.258301 112.648819,706.641357 112.259483,706.950684 
	C106.125725,711.824036 106.057693,711.871094 101.719063,705.612122 
	C96.141289,697.565491 90.729492,689.403931 85.154366,681.355469 
	C83.257530,678.617065 83.131218,676.540527 86.510132,675.007141 
	C87.403236,674.601807 88.202698,673.948181 88.971916,673.318970 
	C92.438774,670.482910 95.242912,670.683716 97.295845,674.983093 
	C97.720482,675.872314 98.387833,676.645752 99.139175,677.777710 
z"/>
<path fill="#F6F6F6" opacity="1.000000" stroke="none" 
	d="
M31.887947,465.451477 
	C32.884884,476.360626 33.757572,486.900391 34.557465,497.445648 
	C34.776375,500.331604 34.944885,503.153046 30.786606,503.649567 
	C22.283941,504.664917 21.052517,504.500061 20.867395,499.128845 
	C20.463905,487.421844 20.742725,475.691284 20.742725,463.507538 
	C23.927591,464.970612 28.321123,459.945160 31.887947,465.451477 
z"/>
<path fill="#F7F7F7" opacity="1.000000" stroke="none" 
	d="
M681.354492,798.431824 
	C687.193115,794.286560 692.908447,790.570679 698.268250,786.398071 
	C701.875122,783.590088 704.542786,783.105591 706.873474,787.620483 
	C707.398376,788.637207 708.163757,789.557800 708.941528,790.410278 
	C710.832703,792.482849 710.504395,794.276672 708.349731,795.842773 
	C702.852600,799.838501 697.364075,803.847290 691.810364,807.763428 
	C688.552734,810.060547 685.024597,811.995667 681.895935,814.448059 
	C678.534302,817.082886 676.672302,816.421082 674.473755,812.847473 
	C670.163879,805.842102 669.950562,805.970093 676.896179,801.378479 
	C678.282410,800.461975 679.684875,799.570007 681.354492,798.431824 
z"/>
<path fill="#F8F8F8" opacity="1.000000" stroke="none" 
	d="
M223.810791,84.919830 
	C230.037811,93.985527 230.008942,93.943100 221.368546,99.823456 
	C214.808914,104.287712 208.154205,108.644470 201.889343,113.497688 
	C198.034729,116.483757 195.853287,116.383339 192.837936,112.262436 
	C188.499908,106.333916 188.090973,106.129059 194.008179,101.987465 
	C202.140060,96.295753 210.358490,90.722198 218.676682,85.308258 
	C219.909073,84.506142 221.891617,84.856560 223.810791,84.919830 
z"/>
<path fill="#F6F6F6" opacity="1.000000" stroke="none" 
	d="
M424.958618,19.718655 
	C428.923645,19.718672 432.398712,19.718672 436.230804,19.718672 
	C436.523804,23.030764 437.246796,26.155811 436.846954,29.129890 
	C436.683441,30.346254 434.166321,31.994310 432.590881,32.151272 
	C422.370453,33.169563 412.113129,33.813862 401.870819,34.618462 
	C398.182220,34.908222 396.445190,33.602154 396.295166,29.581766 
	C395.990967,21.427555 396.368469,20.747852 404.573761,20.395811 
	C411.202850,20.111391 417.836823,19.940107 424.958618,19.718655 
z"/>
<path fill="#F5F5F5" opacity="1.000000" stroke="none" 
	d="
M146.971039,141.959915 
	C151.031845,138.249329 155.020477,134.943756 158.500458,131.169220 
	C162.326263,127.019608 164.417419,130.002350 166.822327,132.599030 
	C169.192825,135.158569 172.228027,137.319962 168.141708,141.182526 
	C161.036072,147.899063 154.061783,154.779968 147.418304,161.949539 
	C143.951477,165.690918 141.127213,165.374100 137.952560,162.133331 
	C136.353271,160.500732 134.923386,158.702179 133.283234,156.825729 
	C137.972946,151.689102 142.323807,146.923660 146.971039,141.959915 
z"/>
<path fill="#F5F5F5" opacity="1.000000" stroke="none" 
	d="
M149.114532,739.901123 
	C152.609955,743.438660 155.606567,747.025391 159.152588,749.944824 
	C166.225723,755.768188 166.257477,759.808960 158.730255,765.209167 
	C158.078354,765.676880 157.277847,765.937500 155.394760,767.226440 
	C147.115494,758.407532 138.842438,749.582703 130.552277,740.774048 
	C128.630951,738.732605 128.285004,736.889893 130.771927,734.955811 
	C132.208496,733.838623 133.337723,732.333496 134.733337,731.154541 
	C136.787720,729.418945 138.723541,729.182556 140.774124,731.483093 
	C143.320068,734.339294 146.154419,736.938477 149.114532,739.901123 
z"/>
<path fill="#F4F4F5" opacity="1.000000" stroke="none" 
	d="
M754.103638,757.111450 
	C748.558716,762.082764 743.267822,766.802612 738.167297,771.352539 
	C737.363281,771.065125 736.974915,771.040161 736.762207,770.833984 
	C726.345947,760.736938 727.659119,763.462769 736.301636,754.515625 
	C741.696594,748.930481 747.244202,743.491760 752.776611,738.041382 
	C754.052612,736.784363 755.546997,735.748962 757.333984,734.290894 
	C760.613281,737.254700 763.690796,740.036072 766.833679,742.876587 
	C762.278564,747.981934 758.318054,752.420898 754.103638,757.111450 
z"/>
<path fill="#000000" opacity="1.000000" stroke="none" 
	d="
M578.476501,217.057526 
	C583.617676,216.805588 588.422791,216.660400 593.215759,216.840454 
	C596.891602,216.978516 600.568970,217.405975 604.216553,217.913483 
	C621.014709,220.250626 635.825439,227.486710 648.527466,238.253418 
	C667.126160,254.018463 679.383484,273.997375 682.932983,298.438477 
	C686.875488,325.585510 681.067932,350.728882 664.526917,372.756958 
	C649.874878,392.269470 630.285400,404.831268 606.302002,409.745361 
	C599.644165,411.109497 592.558838,410.271881 585.690857,410.749664 
	C571.126648,411.762878 557.437256,408.596832 544.443848,402.268066 
	C532.546753,396.473267 522.108154,389.052368 513.198486,378.807251 
	C501.768005,365.663483 494.136932,351.067596 490.714142,334.223969 
	C489.624207,328.860199 489.846436,323.222107 489.569458,317.704468 
	C489.452942,315.383209 489.781982,313.034149 489.596863,310.722687 
	C487.905365,289.602234 495.810425,271.355804 507.809235,254.989075 
	C520.816467,237.246933 538.449585,225.257141 559.885742,219.605087 
	C565.762573,218.055542 572.041077,218.029419 578.476501,217.057526 
z"/>
<path fill="#010101" opacity="1.000000" stroke="none" 
	d="
M585.268372,488.284180 
	C582.710938,493.357483 579.808777,498.002869 578.331970,503.064209 
	C577.429199,506.158081 576.486572,507.207458 573.483093,507.151245 
	C567.152954,507.032654 560.815857,506.993103 554.488098,507.163483 
	C550.999817,507.257446 549.451172,505.869354 549.902588,502.449799 
	C550.428406,498.466827 550.978516,494.481537 551.703857,490.531372 
	C554.784668,473.753357 566.061462,464.722504 581.064148,458.712036 
	C592.429321,454.158905 604.081970,454.421906 615.947083,454.200500 
	C626.027222,454.012451 635.823608,454.562256 645.312195,457.892181 
	C660.531921,463.233307 670.633850,473.313354 672.962219,489.765198 
	C673.532227,493.792664 672.480286,498.024597 672.472168,502.163086 
	C672.418030,529.658569 672.507385,557.154419 672.405884,584.649658 
	C672.376831,592.525391 677.815430,600.618164 686.523071,598.926147 
	C688.090881,598.621460 689.768616,598.882751 692.107178,598.882751 
	C692.107178,605.468140 692.224976,611.573547 691.978882,617.664246 
	C691.942383,618.568359 690.259399,620.053284 689.219727,620.164551 
	C682.423218,620.892456 675.587280,621.241150 668.777405,621.858948 
	C661.163208,622.549744 653.401733,618.398438 650.143555,611.407349 
	C648.783813,608.489807 647.985107,605.310852 646.853638,602.025330 
	C637.209717,610.413452 626.981995,617.307068 614.620361,620.163330 
	C610.581604,621.096558 606.328186,621.198608 602.158997,621.443481 
	C597.765747,621.701477 593.355652,621.769592 588.953430,621.756165 
	C576.526978,621.718201 566.132324,617.818909 556.796631,608.807190 
	C550.076904,602.320679 545.854614,595.307068 544.349915,586.634277 
	C541.510742,570.269409 543.278076,554.578247 555.533752,542.141724 
	C563.881897,533.670532 575.098206,530.183716 586.516235,527.954712 
	C594.992737,526.299988 603.597595,525.306763 612.139526,523.981812 
	C618.515198,522.992859 624.883728,521.956665 631.251831,520.919800 
	C638.356750,519.763000 644.798401,517.022339 645.829163,509.146698 
	C647.519714,496.229889 642.909668,486.868561 633.934265,483.201233 
	C621.147034,477.976440 608.091919,477.151642 595.065430,482.103821 
	C591.630493,483.409668 588.691589,486.020264 585.268372,488.284180 
M642.097778,577.512451 
	C643.019958,575.794189 644.628174,574.123596 644.751465,572.349792 
	C645.476440,561.920471 645.855286,551.466980 646.341797,541.210388 
	C636.602417,542.937012 627.633484,544.344116 618.745605,546.149963 
	C608.119873,548.308838 597.362183,550.154358 587.029358,553.331299 
	C574.877380,557.067566 568.599365,571.557373 573.269592,583.196289 
	C577.173767,592.925964 585.715759,596.928772 595.057739,597.763306 
	C613.796204,599.437378 629.914307,593.484436 642.097778,577.512451 
z"/>
<path fill="#020202" opacity="1.000000" stroke="none" 
	d="
M413.118164,555.999329 
	C413.451660,563.417725 413.076965,570.461609 414.273773,577.227478 
	C416.423126,589.378418 428.412872,597.428162 441.356903,597.979492 
	C466.410187,599.046692 479.178589,580.628723 482.817474,561.297729 
	C483.596558,557.159058 483.824432,552.865662 483.837311,548.642090 
	C483.923218,520.489136 484.006226,492.334839 483.769318,464.183655 
	C483.725708,459.002228 485.395599,457.457245 490.362610,457.806061 
	C495.832825,458.190277 501.367706,458.149933 506.843079,457.801605 
	C510.939667,457.541046 512.247314,458.711090 512.218201,462.982361 
	C512.028381,490.801025 512.118774,518.621643 512.118286,546.441650 
	C512.117859,567.764771 512.023804,589.088684 512.198425,610.410339 
	C512.233398,614.683594 511.082977,616.442200 506.568207,616.212280 
	C500.160889,615.885986 493.724487,616.129578 487.243408,616.129578 
	C487.243408,609.656921 487.243408,603.977356 487.243408,598.492126 
	C481.852051,603.380188 476.856842,608.612488 471.162506,612.920776 
	C460.370728,621.085938 447.801941,622.130737 434.606964,622.021606 
	C422.872620,621.924500 411.961426,620.296021 402.518860,613.210022 
	C393.939880,606.772095 387.537170,598.569946 386.023376,587.533569 
	C385.627014,584.643616 386.450104,581.607666 386.453735,578.638489 
	C386.499756,540.989929 386.504425,503.341339 386.494324,465.692780 
	C386.493713,463.396484 386.280334,461.100220 386.123871,457.959503 
	C394.574249,457.959503 402.980865,457.860962 411.373535,458.157318 
	C412.005920,458.179657 413.030579,461.012054 413.042358,462.544586 
	C413.165222,478.535980 413.118134,494.528687 413.118134,510.521027 
	C413.118164,525.513855 413.118164,540.506714 413.118164,555.999329 
z"/>
<path fill="#020202" opacity="1.000000" stroke="none" 
	d="
M226.239120,418.999969 
	C226.239120,411.545959 226.239120,404.591949 226.239120,396.939850 
	C235.453583,396.939850 244.548935,396.868927 253.638840,397.058746 
	C254.471298,397.076141 255.664673,398.642273 255.984238,399.702179 
	C256.399658,401.079987 256.118561,402.671051 256.118622,404.170349 
	C256.120941,463.997650 256.121124,523.824951 256.121613,583.652222 
	C256.121643,585.457825 256.121643,587.263367 256.121643,589.499573 
	C291.313263,589.499573 326.079895,589.499573 361.436462,589.499573 
	C361.436462,598.344788 361.436462,606.757507 361.436462,615.649414 
	C316.778076,615.649414 271.747955,615.649414 226.239120,615.649414 
	C226.239120,550.308472 226.239120,484.904205 226.239120,418.999969 
z"/>
<path fill="#EDEDED" opacity="1.000000" stroke="none" 
	d="
M641.973389,577.859985 
	C629.914307,593.484436 613.796204,599.437378 595.057739,597.763306 
	C585.715759,596.928772 577.173767,592.925964 573.269592,583.196289 
	C568.599365,571.557373 574.877380,557.067566 587.029358,553.331299 
	C597.362183,550.154358 608.119873,548.308838 618.745605,546.149963 
	C627.633484,544.344116 636.602417,542.937012 646.341797,541.210388 
	C645.855286,551.466980 645.476440,561.920471 644.751465,572.349792 
	C644.628174,574.123596 643.019958,575.794189 641.973389,577.859985 
z"/>
</svg>