<?xml version="1.0" encoding="UTF-8"?>
<svg version="1.1" xmlns="http://www.w3.org/2000/svg" width="694" height="702">
<path d="M0 0 C229.02 0 458.04 0 694 0 C694 231.66 694 463.32 694 702 C464.98 702 235.96 702 0 702 C0 470.34 0 238.68 0 0 Z " fill="#0E1118" transform="translate(0,0)"/>
<path d="M0 0 C1.19015811 -0.00424107 1.19015811 -0.00424107 2.40435982 -0.00856781 C6.61877893 -0.02348698 10.83316457 -0.03275745 15.04760742 -0.03710938 C18.46731443 -0.04145861 21.8867641 -0.05522145 25.30639648 -0.078125 C46.20031513 -0.21528318 66.55282651 0.32917868 87.28515625 3.203125 C88.72091003 3.39729256 88.72091003 3.39729256 90.18566895 3.59538269 C117.21193775 7.27876506 140.81123582 16.62172518 160.28515625 36.203125 C161.65220703 37.57017578 161.65220703 37.57017578 163.046875 38.96484375 C168.68645926 44.87418391 172.81133291 50.81692255 176.28515625 58.203125 C176.60097656 58.863125 176.91679687 59.523125 177.2421875 60.203125 C179.00515983 64.09382256 180.19606392 68.08013259 181.28515625 72.203125 C181.46502893 72.78215985 181.64490162 73.36119471 181.83022499 73.95777607 C182.47407159 77.13553148 182.42525618 80.19939938 182.4390564 83.44120789 C182.44343865 84.17175394 182.4478209 84.9023 182.45233595 85.65498382 C182.46569528 88.10422038 182.47189657 90.55342098 182.47802734 93.00268555 C182.48593112 94.75892295 182.49420024 96.51515873 182.50280762 98.27139282 C182.5290149 104.04419406 182.54434265 109.81700246 182.55859375 115.58984375 C182.5639556 117.58176999 182.56933311 119.57369618 182.5747261 121.56562233 C182.59636065 129.86015921 182.61509172 138.15469417 182.6263485 146.44925213 C182.64254787 158.30574475 182.67562124 170.16190758 182.73274934 182.01827592 C182.77160206 190.36929618 182.79099975 198.72022884 182.79626906 207.07133704 C182.79990406 212.05021252 182.81172514 217.02873616 182.8443718 222.00751305 C182.87472001 226.70343833 182.88067021 231.39880391 182.86898804 236.09480667 C182.86876946 237.80506427 182.87689228 239.51534986 182.89464188 241.22551537 C183.11184458 263.38565738 176.14274046 281.56043363 161.28515625 298.203125 C160.53621094 299.04617188 159.78726562 299.88921875 159.015625 300.7578125 C146.2327317 314.34609003 127.32553631 323.92186981 108.47316527 324.55293477 C104.75755271 324.61634823 101.04366167 324.61536077 97.32763672 324.60375977 C95.65065525 324.60951426 93.97367792 324.6166019 92.29670715 324.62490845 C88.70699095 324.63993485 85.11742264 324.64580328 81.52767563 324.64438057 C75.83405191 324.64233144 70.14062398 324.66201913 64.447052 324.68455505 C53.3771275 324.72540862 42.30721882 324.74409301 31.23723602 324.76072693 C17.16925268 324.78312023 3.10131557 324.81696867 -10.96659362 324.86792606 C-16.60824149 324.88766633 -22.2497863 324.89741552 -27.89146733 324.89887822 C-31.42466334 324.90166029 -34.95780393 324.91255894 -38.49097633 324.92538834 C-40.10887822 324.92960949 -41.72679308 324.93056856 -43.34469795 324.92771339 C-51.71124997 324.91466116 -59.96097376 325.19016594 -68.28414917 326.08726501 C-69.00209408 326.1636434 -69.72003899 326.24002179 -70.4597398 326.31871468 C-97.03504984 329.47069557 -119.53197861 344.18586256 -136.71484375 364.203125 C-140.14660037 368.62693882 -142.99501208 373.31674648 -145.71484375 378.203125 C-146.20339844 379.06808594 -146.69195312 379.93304688 -147.1953125 380.82421875 C-156.0736896 398.3351102 -156.83849918 418.05445565 -157.03125 437.2421875 C-157.05185825 438.97667899 -157.07285563 440.71116589 -157.09422302 442.44564819 C-157.1490444 446.9795965 -157.19862736 451.51358708 -157.24707031 456.04760742 C-157.29757961 460.68672382 -157.35311103 465.32577991 -157.40820312 469.96484375 C-157.51529515 479.04421914 -157.61684586 488.12364721 -157.71484375 497.203125 C-166.04381136 497.27324326 -174.37265161 497.32624508 -182.70184326 497.35856152 C-186.57119315 497.37408713 -190.44033824 497.39507908 -194.30957031 497.42944336 C-198.05733189 497.46251301 -201.80489897 497.48007592 -205.55279541 497.48775673 C-206.96863865 497.49321633 -208.38447366 497.50387138 -209.80023193 497.52031517 C-233.73459833 497.78675058 -252.3853387 491.41843478 -270.04296875 475.0078125 C-274.6392586 470.1830521 -278.16646427 464.83756351 -281.71484375 459.203125 C-282.58109375 457.83220703 -282.58109375 457.83220703 -283.46484375 456.43359375 C-295.54249278 436.77721996 -300.387813 414.32334088 -304.95117188 391.93261719 C-305.42148173 389.63579708 -305.90442394 387.3414697 -306.40820312 385.05175781 C-313.52695908 352.14120144 -312.96344211 313.02970761 -305.71484375 280.203125 C-305.30042397 278.20927492 -304.88605608 276.21541378 -304.47291565 274.22129822 C-299.60488015 250.90064155 -299.60488015 250.90064155 -295.5949707 240.52685547 C-294.75695999 238.31432121 -294.0607686 236.0995398 -293.40234375 233.828125 C-285.12270933 209.07730295 -265.17286901 191.49583977 -242.96484375 179.328125 C-229.56635641 172.85778487 -213.75724894 171.03362398 -199.02111816 171.08287048 C-198.07506572 171.08201606 -197.12901328 171.08116163 -196.15429258 171.08028132 C-193.0006286 171.07864099 -189.84701842 171.08412412 -186.69335938 171.08959961 C-184.42619834 171.08988182 -182.15903721 171.08972309 -179.89187622 171.0891571 C-173.74790978 171.08887045 -167.60396289 171.09474591 -161.46000099 171.10173106 C-155.03514327 171.10798652 -148.6102851 171.10857014 -142.1854248 171.10975647 C-131.40518797 171.11251043 -120.62495967 171.1187547 -109.84472656 171.12768555 C-98.74381547 171.13687247 -87.64290632 171.14394704 -76.54199219 171.14819336 C-75.85708499 171.14845608 -75.1721778 171.14871881 -74.46651584 171.14898949 C-71.03034454 171.15029458 -67.59417322 171.15155828 -64.1580019 171.15280139 C-35.67694409 171.1631586 -7.19589468 171.18103976 21.28515625 171.203125 C21.28515625 164.933125 21.28515625 158.663125 21.28515625 152.203125 C-31.51484375 152.203125 -84.31484375 152.203125 -138.71484375 152.203125 C-138.74578125 131.6915625 -138.74578125 131.6915625 -138.77734375 110.765625 C-138.78644775 106.44154541 -138.79555176 102.11746582 -138.80493164 97.66235352 C-138.80944824 92.39831543 -138.80944824 92.39831543 -138.81028748 89.93711853 C-138.81182708 88.21132652 -138.81535235 86.48553562 -138.82041931 84.75975037 C-138.82769635 82.15174479 -138.82875118 79.54380517 -138.82836914 76.93579102 C-138.83196725 76.16181504 -138.83556536 75.38783907 -138.8392725 74.59040928 C-138.82887009 69.31715134 -138.82887009 69.31715134 -137.71484375 68.203125 C-137.42067423 66.48255074 -137.1310722 64.76104838 -136.86669922 63.03564453 C-134.726402 49.50711837 -129.52113554 39.87056664 -119.71484375 30.203125 C-119.16183594 29.63980469 -118.60882813 29.07648437 -118.0390625 28.49609375 C-95.79080425 7.57279381 -56.55634894 4.37115314 -27.71484375 1.203125 C-26.56197624 1.07043213 -26.56197624 1.07043213 -25.38581848 0.93505859 C-16.9294067 0.0546832 -8.49111145 0.02074469 0 0 Z " fill="#FEFEFE" transform="translate(325.71484375,14.796875)"/>
<path d="M0 0 C8.88503656 -0.06997549 17.76997606 -0.12304983 26.65522957 -0.15543652 C30.78246016 -0.1709923 34.90950015 -0.19204234 39.03662109 -0.22631836 C43.03075874 -0.25927664 47.02471482 -0.27692852 51.01897812 -0.28463173 C52.5313693 -0.29011065 54.04375225 -0.30080626 55.55606461 -0.31719017 C78.24504197 -0.55288056 96.1879499 5.67195257 113.015625 21.0078125 C120 28.01968504 120 28.01968504 120 32 C120.66 32 121.32 32 122 32 C123.40234375 33.94140625 123.40234375 33.94140625 124.9375 36.5625 C125.69353516 37.83287109 125.69353516 37.83287109 126.46484375 39.12890625 C127.86529233 41.74806581 129.05130139 44.39696801 130.20811462 47.13017273 C130.9351876 48.84696271 131.67836851 50.55690751 132.4230957 52.26611328 C136.40384086 61.7445921 139.1432963 71.30410486 141.56030273 81.28759766 C142.18584791 83.86818456 142.82887276 86.44393104 143.47460938 89.01953125 C147.0370494 103.3800177 149.9882853 117.72270888 151.125 132.5 C151.26949649 134.30240362 151.41771378 136.10451426 151.5703125 137.90625 C151.62977051 138.67259766 151.68922852 139.43894531 151.75048828 140.22851562 C151.82204182 142.02256639 151.82204182 142.02256639 153 143 C153.0979412 144.33255111 153.12798085 145.67020285 153.12939453 147.00634766 C153.13254669 147.85879059 153.13569885 148.71123352 153.13894653 149.58950806 C153.13591019 150.98766251 153.13591019 150.98766251 153.1328125 152.4140625 C153.13424759 153.85681046 153.13424759 153.85681046 153.13571167 155.32870483 C153.13639451 157.3783169 153.13453306 159.42793111 153.13037109 161.47753906 C153.12510546 164.56320309 153.13026962 167.64871604 153.13671875 170.734375 C153.14772496 199.70522219 153.14772496 199.70522219 150 211 C149.71725718 212.77659354 149.44934372 214.55557339 149.19140625 216.3359375 C148.00900022 223.5576257 146.01252942 230.44744496 143.875 237.4375 C143.67614197 238.09063171 143.47728394 238.74376343 143.2723999 239.41668701 C133.99319451 269.80541453 122.55623514 301.98419027 94 319 C93.22880672 319.48301701 92.45761343 319.96603401 91.66305065 320.4636879 C79.09379441 327.71488325 65.13318854 326.54247796 51.1159668 326.45410156 C48.60176614 326.45297193 46.08756416 326.45360921 43.57336426 326.45587158 C38.18232559 326.45677889 32.79153629 326.44552352 27.40054893 326.42292023 C19.60636819 326.3902623 11.81228082 326.37997921 4.01803908 326.37496826 C-8.63084958 326.3662371 -21.27963442 326.33968103 -33.9284668 326.30175781 C-46.20775843 326.26498106 -58.48702175 326.23669712 -70.76635742 326.21972656 C-71.52462589 326.21867567 -72.28289436 326.21762477 -73.06414066 326.21654204 C-76.8685604 326.21132148 -80.67298034 326.20626674 -84.47740042 326.20129442 C-115.98501144 326.15990031 -147.49248417 326.08840248 -179 326 C-179 332.6 -179 339.2 -179 346 C-126.2 346 -73.4 346 -19 346 C-19 436.36650609 -19 436.36650609 -41 459.4375 C-47.62196267 465.6390206 -55.21153514 470.22830575 -63.0625 474.6875 C-63.71089844 475.05609131 -64.35929687 475.42468262 -65.02734375 475.80444336 C-73.47437115 480.50395044 -82.20587214 483.91279377 -91.375 486.9375 C-92.42502197 487.28449951 -93.47504395 487.63149902 -94.55688477 487.98901367 C-122.93825141 497.24291845 -151.01738308 501.38437974 -180.87646484 501.31567383 C-183.76307065 501.31248556 -186.64867362 501.33621343 -189.53515625 501.36132812 C-201.05365436 501.40008534 -211.73735949 500.33945452 -223 498 C-224.81559576 497.70293297 -226.63310997 497.41710472 -228.453125 497.1484375 C-249.61579 493.8173173 -270.78693621 487.56001116 -290 478 C-290.98226562 477.52175781 -291.96453125 477.04351563 -292.9765625 476.55078125 C-312.13859875 466.69987529 -330.10846474 449.9467735 -337 429 C-339.73168251 418.3078736 -340.435281 408.18766846 -340.38818359 397.20507812 C-340.39226102 395.58190053 -340.39760939 393.95872572 -340.40411377 392.33555603 C-340.41765421 387.9739352 -340.41254433 383.61253003 -340.40297651 379.25090599 C-340.39531034 374.65754039 -340.40244464 370.06419162 -340.40713501 365.4708252 C-340.4125725 357.76127859 -340.40545393 350.05181858 -340.39111328 342.34228516 C-340.37479066 333.4654822 -340.3800806 324.58888606 -340.3965925 315.71208811 C-340.41026487 308.05129954 -340.41209908 300.39057275 -340.40427649 292.72977591 C-340.39963142 288.17154654 -340.39888687 283.61341395 -340.40888596 279.05519104 C-340.41763766 274.76711548 -340.41138629 270.4793031 -340.39420319 266.19125557 C-340.39028167 264.63014218 -340.39129659 263.06900611 -340.39799118 261.50790215 C-340.49821907 235.73303106 -332.9312875 213.42400774 -314.7265625 194.65625 C-297.37039336 178.25495101 -277.35764722 172.70321428 -254.13598633 172.69702148 C-252.433254 172.68935009 -250.73052543 172.6808018 -249.02780151 172.67144775 C-245.37421575 172.65323469 -241.72068049 172.64115413 -238.06705666 172.63390923 C-232.27818456 172.6223673 -226.48942351 172.59688415 -220.7006073 172.56959534 C-211.53424333 172.52800856 -202.36787386 172.49557149 -193.20146054 172.46712118 C-176.81158908 172.4161512 -160.42176603 172.3536172 -144.03197306 172.28178078 C-138.28972599 172.25702478 -132.54749287 172.23751842 -126.80521262 172.22239864 C-123.21650197 172.21211062 -119.62781327 172.19796399 -116.03911972 172.18292236 C-114.38890165 172.17682681 -112.73867665 172.17233441 -111.08844948 172.16966438 C-79.31082408 172.11536649 -53.21670454 164.98834351 -30 142 C-20.79396797 132.41160881 -14.71477262 122.90805492 -9 111 C-8.60554688 110.23816406 -8.21109375 109.47632813 -7.8046875 108.69140625 C-0.97814416 94.9039388 -0.3976057 79.80069492 -0.390625 64.74609375 C-0.37560032 62.86465565 -0.35886441 60.98323052 -0.34051514 59.1018219 C-0.29730993 54.21118477 -0.276948 49.32072532 -0.26177979 44.42993164 C-0.24203748 39.41477143 -0.20008834 34.39979852 -0.16015625 29.38476562 C-0.08536314 19.58990221 -0.03476583 9.79508172 0 0 Z " fill="#FEFEFE" transform="translate(527,186)"/>
<path d="M0 0 C6.07386934 4.3945048 10.16501505 9.3114514 12.546875 16.45703125 C13.24946342 25.31425246 12.74058857 32.56642035 8.546875 40.45703125 C7.99 41.52953125 7.433125 42.60203125 6.859375 43.70703125 C0.81513592 50.89477501 -7.57337097 54.68045996 -16.765625 55.89453125 C-26.12125492 54.78454126 -33.19113671 52.03545814 -39.5390625 44.92578125 C-45.50934829 37.225331 -47.28887043 30.91811637 -46.94140625 21.08984375 C-45.61052077 11.1880558 -40.08951345 5.2739257 -32.515625 -0.73046875 C-21.98552527 -8.35841809 -10.59076494 -6.66138878 0 0 Z " fill="#10131A" transform="translate(454.453125,578.54296875)"/>
<path d="M0 0 C1.04414063 0.00966797 1.04414063 0.00966797 2.109375 0.01953125 C9.83612241 0.43677561 15.60204836 5.30764456 20.875 10.625 C25.98368473 16.86234764 27.34813192 24.58228306 27.0625 32.5 C25.97001429 40.53093215 22.5558326 48.43812846 16.125 53.5625 C14.77882839 54.42192029 13.40363135 55.23802869 12 56 C11.39542969 56.33644531 10.79085937 56.67289063 10.16796875 57.01953125 C2.88298405 60.37829262 -6.20125882 60.05758621 -13.8125 57.9375 C-21.91342804 54.72685696 -26.49380884 49.07264877 -30.08984375 41.33203125 C-32.64848138 34.77620865 -32.77861331 27.8152052 -31.375 20.9375 C-26.83914118 11.24725615 -22.37188035 5.40687846 -12.5234375 0.85546875 C-8.35759385 -0.55679094 -4.34709718 -0.19335248 0 0 Z " fill="#0F1219" transform="translate(260,65)"/>
<path d="M0 0 C0.66 0.33 1.32 0.66 2 1 C-4.93 7.93 -11.86 14.86 -19 22 C-19 17.83256273 -16.7220201 16.1175327 -14 13.25 C-13.50395264 12.71793945 -13.00790527 12.18587891 -12.49682617 11.63769531 C-8.56892151 7.476431 -4.4406485 3.61359362 0 0 Z " fill="#CFD0D1" transform="translate(65,205)"/>
</svg>
