<svg version="1.1" id="Layer_1" xmlns="http://www.w3.org/2000/svg" xmlns:xlink="http://www.w3.org/1999/xlink" x="0px" y="0px"
	 width="100%" viewBox="0 0 688 688" enable-background="new 0 0 688 688" xml:space="preserve">
<path fill="#000000" opacity="1.000000" stroke="none" 
	d="
M689.000000,292.531342 
	C685.723938,284.791870 684.864563,275.984924 682.738831,267.490631 
	C678.396545,250.139206 673.100830,233.181076 663.763916,217.773010 
	C652.582581,199.321060 637.313660,186.225769 615.614746,181.874603 
	C610.897766,180.928726 606.141174,180.201584 601.273438,180.220901 
	C581.613770,180.298935 561.951050,180.431824 542.295410,180.141052 
	C537.057373,180.063553 535.832886,181.916946 535.878052,186.777466 
	C536.080994,208.601425 536.052612,230.428848 535.942017,252.254181 
	C535.711792,297.685364 508.188385,337.918762 466.572418,353.978271 
	C453.328735,359.088959 439.552673,360.868591 425.484619,360.877594 
	C372.169495,360.911682 318.848602,361.378754 265.541077,360.743408 
	C225.104233,360.261505 191.654480,389.485565 182.929596,424.987915 
	C181.298401,431.625397 180.265076,438.335327 180.267349,445.197784 
	C180.284958,498.179688 180.298096,551.161560 180.266449,604.143494 
	C180.251755,628.724487 190.826996,648.024597 209.589661,663.241577 
	C222.551407,673.753906 237.348251,680.907837 252.932968,686.577942 
	C254.487839,687.143616 256.002106,687.820984 257.767578,688.723267 
	C172.398422,689.000000 86.796844,689.000000 1.000000,689.000000 
	C1.000000,582.979187 1.000000,476.958252 1.000000,370.468658 
	C3.340856,377.000610 2.915158,384.406830 4.169487,391.578400 
	C9.215270,420.427582 13.515956,449.492615 28.282106,475.514130 
	C44.647038,504.353088 68.803329,520.234070 102.684029,519.852051 
	C118.347801,519.675415 134.015366,519.865540 149.680664,519.783142 
	C159.570023,519.731140 158.935928,521.141663 158.947495,510.239471 
	C158.969055,489.907440 159.010254,469.574982 158.903503,449.243408 
	C158.766678,423.182373 165.920395,399.537445 182.669525,379.351776 
	C202.523819,355.423798 227.627014,340.870758 259.215668,339.840576 
	C316.017090,337.988159 372.845856,339.290192 429.661804,339.183716 
	C449.096802,339.147278 466.551758,334.039154 481.704468,322.037292 
	C499.986664,307.556702 510.860596,288.692627 513.922974,265.357697 
	C514.753601,259.028595 514.781677,252.746414 514.785461,246.432022 
	C514.814331,197.768402 514.501343,149.102402 514.885071,100.441803 
	C515.206726,59.655743 494.476349,33.232891 459.209229,16.346519 
	C444.447662,9.278489 428.368225,7.279149 412.350098,5.126094 
	C398.838348,3.309932 385.208282,2.989022 371.338562,1.245693 
	C476.923920,1.000000 582.847839,1.000000 689.000000,1.000000 
	C689.000000,98.020775 689.000000,195.041733 689.000000,292.531342 
z"/>
<path fill="#000000" opacity="1.000000" stroke="none" 
	d="
M317.531342,1.000000 
	C312.298157,3.259334 306.209991,2.532010 300.313782,3.127719 
	C277.798798,5.402465 255.421585,8.349124 233.771103,15.242212 
	C220.988297,19.312006 208.954834,24.758455 199.087296,34.306973 
	C187.103271,45.903530 182.617279,60.543175 181.259628,76.527779 
	C179.099319,101.962868 180.822647,127.456909 180.162750,152.913544 
	C180.043045,157.530899 181.566223,158.872360 186.131653,158.860794 
	C237.272980,158.731323 288.414764,158.790268 339.556427,158.794357 
	C347.914490,158.795029 347.987122,158.786377 347.919769,166.912827 
	C347.790955,182.451935 349.710297,180.166000 334.724884,180.182129 
	C261.760620,180.260651 188.796265,180.246460 115.831932,180.231216 
	C70.735069,180.221802 32.261829,207.259750 17.402052,249.876663 
	C10.761099,268.922516 7.248108,288.747162 4.255112,308.643341 
	C3.171147,315.849091 2.402618,323.102234 1.245078,330.666870 
	C1.000000,221.074402 1.000000,111.148796 1.000000,1.000000 
	C106.354126,1.000000 211.708405,1.000000 317.531342,1.000000 
z"/>
<path fill="#000000" opacity="1.000000" stroke="none" 
	d="
M437.468658,689.000000 
	C441.252625,685.911072 446.483337,685.207520 451.194427,683.225037 
	C470.629852,675.046021 488.514587,664.802002 501.256683,647.308838 
	C510.071014,635.208008 514.440002,621.565857 514.666687,606.743530 
	C514.969788,586.925781 514.600647,567.098022 514.871094,547.279358 
	C514.939148,542.294250 513.179810,541.159607 508.530914,541.171753 
	C457.393158,541.304871 406.254944,541.251648 355.116852,541.249023 
	C347.631409,541.248657 347.626129,541.248901 347.611694,533.918640 
	C347.605164,530.587219 347.701233,527.253662 347.608459,523.925049 
	C347.526672,520.992004 348.742828,519.577881 351.742401,519.741882 
	C353.236725,519.823547 354.739838,519.739990 356.238953,519.739929 
	C437.526855,519.734497 518.814758,519.713135 600.102661,519.735718 
	C624.602234,519.742554 643.831848,509.827637 657.576416,489.486786 
	C669.269409,472.181946 676.287720,452.779572 682.640381,433.100342 
	C684.730652,426.625214 686.531555,420.056641 688.732422,413.265381 
	C689.000000,504.923737 689.000000,596.847473 689.000000,689.000000 
	C605.312561,689.000000 521.624939,689.000000 437.468658,689.000000 
z"/>
<path fill="#000000" opacity="1.000000" stroke="none" 
	d="
M271.024048,57.852757 
	C289.168640,72.298714 289.352386,98.038544 271.704865,110.301537 
	C258.413757,119.537338 241.859909,117.987617 230.765167,106.468933 
	C219.995590,95.287819 218.884109,77.727989 228.152786,65.196884 
	C238.282333,51.501842 255.689774,48.418736 271.024048,57.852757 
z"/>
<path fill="#000000" opacity="1.000000" stroke="none" 
	d="
M413.720642,600.966187 
	C421.925781,587.043945 435.060425,581.181946 449.325287,584.804688 
	C462.875610,588.246033 472.778412,600.589722 473.248657,614.624756 
	C473.819641,631.666748 461.393219,646.217529 443.679871,647.664429 
	C428.328247,648.918335 414.891571,639.096191 410.801636,622.143616 
	C409.042999,614.854309 410.398315,607.956604 413.720642,600.966187 
z"/>
</svg>