<svg version="1.1" id="Layer_1" xmlns="http://www.w3.org/2000/svg" xmlns:xlink="http://www.w3.org/1999/xlink" x="0px" y="0px"
	 width="100%" viewBox="0 0 300 300" enable-background="new 0 0 300 300" xml:space="preserve">
<path fill="#0F1219" opacity="1.000000" stroke="none" 
	d="
M1.000000,140.000000 
	C1.000000,93.352570 1.000000,47.205135 1.000000,1.028852 
	C100.939087,1.028852 200.878189,1.028852 300.908630,1.028852 
	C300.908630,100.897369 300.908630,200.794846 300.908630,300.846161 
	C201.000183,300.846161 101.000114,300.846161 1.000000,300.846161 
	C1.000000,247.455261 1.000000,193.977631 1.000000,140.000000 
M200.594681,16.991226 
	C190.907440,16.029097 181.229538,14.377665 171.531052,14.246463 
	C150.497330,13.961918 129.487030,13.600037 108.478004,16.645399 
	C93.271278,18.849693 77.989700,20.286894 63.154064,24.534103 
	C53.169563,27.392508 49.696789,31.801170 49.690510,41.892647 
	C49.680565,57.880741 49.869244,73.871246 49.640057,89.855942 
	C49.528412,97.642822 53.451160,102.939423 60.002617,105.291122 
	C71.594437,109.452072 83.400116,113.743225 95.483269,115.630821 
	C111.618011,118.151352 128.089645,119.209679 144.440552,119.487900 
	C168.428131,119.896057 192.512955,119.779121 216.049377,113.962517 
	C225.625626,111.595909 235.279083,109.213387 244.460709,105.697639 
	C250.237152,103.485771 255.645218,99.499001 255.646439,91.906761 
	C255.649399,73.420593 255.617554,54.934376 255.653900,36.448284 
	C255.662933,31.854994 253.328491,28.881626 249.324402,27.244658 
	C234.012299,20.984692 217.855133,18.572699 200.594681,16.991226 
M202.484482,212.021606 
	C193.427872,212.920181 184.383408,214.420395 175.312363,214.603271 
	C149.245346,215.128738 123.173431,215.226166 97.297493,211.002579 
	C83.566872,208.761398 70.087883,205.942490 57.693699,199.181320 
	C56.393253,198.471909 53.213570,199.039185 52.370323,200.138031 
	C50.885990,202.072296 49.845066,204.866455 49.816048,207.314728 
	C49.604755,225.139236 49.533440,242.970093 49.849918,260.791260 
	C49.899754,263.597473 51.502277,266.960846 53.469849,269.043427 
	C60.595966,276.585907 70.455788,279.713287 80.023834,281.320465 
	C98.738548,284.464081 117.687286,286.800385 136.629257,287.859650 
	C161.352325,289.242188 186.134338,287.906982 210.670303,284.345764 
	C223.269119,282.517120 235.680618,279.424408 247.011459,273.158752 
	C252.835419,269.938293 255.974991,265.547028 255.799103,258.343597 
	C255.384354,241.359680 255.665558,224.359024 255.627167,207.365219 
	C255.623459,205.719421 255.557083,204.024628 255.169800,202.438004 
	C253.995895,197.628586 252.345551,197.363785 247.681396,199.204788 
	C239.304962,202.511063 230.779648,205.517624 222.143402,208.061768 
	C216.030823,209.862457 209.633057,210.695099 202.484482,212.021606 
M239.975082,118.510025 
	C231.895126,120.694176 223.882263,123.178284 215.722061,125.003761 
	C194.893875,129.663132 173.613831,130.185349 152.444427,130.268936 
	C131.924591,130.349976 111.398094,129.084564 91.110336,125.137947 
	C79.066002,122.794945 67.092407,120.622963 56.716267,113.547112 
	C53.591682,111.416344 51.888607,113.529617 50.828976,115.760216 
	C49.943974,117.623215 49.753929,119.950401 49.744720,122.074142 
	C49.671768,138.904861 49.829384,155.737183 49.664288,172.566559 
	C49.603863,178.726440 52.078571,183.653030 57.282467,186.068100 
	C65.920662,190.076965 74.775757,194.546799 84.004242,196.154251 
	C101.069519,199.126724 118.431938,200.993881 135.741898,201.811234 
	C158.115280,202.867661 180.563354,202.439163 202.818924,199.127792 
	C217.742325,196.907364 232.719757,194.668121 246.214966,187.340775 
	C252.120987,184.134018 256.029205,179.712784 255.789261,171.918457 
	C255.271606,155.103378 255.648193,138.261276 255.606644,121.430367 
	C255.602173,119.622940 255.361252,117.796951 255.041687,116.013313 
	C254.297852,111.861870 252.148773,111.818245 248.988052,113.844910 
	C246.361557,115.529015 243.484528,116.822372 239.975082,118.510025 
z"/>
<path fill="#FBFBFB" opacity="1.000000" stroke="none" 
	d="
M201.061035,16.995016 
	C217.855133,18.572699 234.012299,20.984692 249.324402,27.244658 
	C253.328491,28.881626 255.662933,31.854994 255.653900,36.448284 
	C255.617554,54.934376 255.649399,73.420593 255.646439,91.906761 
	C255.645218,99.499001 250.237152,103.485771 244.460709,105.697639 
	C235.279083,109.213387 225.625626,111.595909 216.049377,113.962517 
	C192.512955,119.779121 168.428131,119.896057 144.440552,119.487900 
	C128.089645,119.209679 111.618011,118.151352 95.483269,115.630821 
	C83.400116,113.743225 71.594437,109.452072 60.002617,105.291122 
	C53.451160,102.939423 49.528412,97.642822 49.640057,89.855942 
	C49.869244,73.871246 49.680565,57.880741 49.690510,41.892647 
	C49.696789,31.801170 53.169563,27.392508 63.154064,24.534103 
	C77.989700,20.286894 93.271278,18.849693 108.478004,16.645399 
	C129.487030,13.600037 150.497330,13.961918 171.531052,14.246463 
	C181.229538,14.377665 190.907440,16.029097 201.061035,16.995016 
M82.952805,41.537544 
	C103.258301,43.107117 123.548653,45.662544 143.873459,45.974762 
	C165.081711,46.300552 186.354996,44.907833 207.536423,43.384712 
	C217.849442,42.643116 228.064896,40.108006 238.216751,37.891273 
	C240.546188,37.382626 242.432114,34.842838 244.522156,33.237820 
	C242.367065,31.550596 240.220505,29.852198 238.044647,28.192215 
	C237.808945,28.012415 237.400879,28.066957 237.077377,27.992702 
	C212.906982,22.445040 188.231613,21.670887 163.625717,20.509050 
	C154.694611,20.087343 145.687515,20.652502 136.744904,21.229443 
	C119.399216,22.348520 102.042633,23.483500 84.757355,25.261343 
	C78.000381,25.956320 71.385109,28.267221 64.796967,30.161037 
	C63.505074,30.532402 62.635105,32.371544 61.570545,33.533733 
	C62.840889,34.689590 63.926476,36.420208 65.414597,36.898552 
	C70.899002,38.661476 76.516701,40.009735 82.952805,41.537544 
M60.042297,73.684052 
	C63.102913,75.757523 66.040237,75.263000 67.298660,71.973648 
	C67.865578,70.491783 66.539757,67.709770 65.226639,66.313194 
	C64.505463,65.546188 60.956417,65.889587 60.553673,66.682632 
	C59.612869,68.535172 59.802338,70.961708 60.042297,73.684052 
z"/>
<path fill="#FDFDFD" opacity="1.000000" stroke="none" 
	d="
M202.923538,211.990753 
	C209.633057,210.695099 216.030823,209.862457 222.143402,208.061768 
	C230.779648,205.517624 239.304962,202.511063 247.681396,199.204788 
	C252.345551,197.363785 253.995895,197.628586 255.169800,202.438004 
	C255.557083,204.024628 255.623459,205.719421 255.627167,207.365219 
	C255.665558,224.359024 255.384354,241.359680 255.799103,258.343597 
	C255.974991,265.547028 252.835419,269.938293 247.011459,273.158752 
	C235.680618,279.424408 223.269119,282.517120 210.670303,284.345764 
	C186.134338,287.906982 161.352325,289.242188 136.629257,287.859650 
	C117.687286,286.800385 98.738548,284.464081 80.023834,281.320465 
	C70.455788,279.713287 60.595966,276.585907 53.469849,269.043427 
	C51.502277,266.960846 49.899754,263.597473 49.849918,260.791260 
	C49.533440,242.970093 49.604755,225.139236 49.816048,207.314728 
	C49.845066,204.866455 50.885990,202.072296 52.370323,200.138031 
	C53.213570,199.039185 56.393253,198.471909 57.693699,199.181320 
	C70.087883,205.942490 83.566872,208.761398 97.297493,211.002579 
	C123.173431,215.226166 149.245346,215.128738 175.312363,214.603271 
	C184.383408,214.420395 193.427872,212.920181 202.923538,211.990753 
M62.325378,236.838486 
	C60.888805,239.775604 61.058464,242.722748 64.334564,243.729385 
	C66.016205,244.246109 69.193542,243.215805 70.140419,241.825729 
	C71.006500,240.554245 70.394562,237.443359 69.341728,235.877304 
	C67.376762,232.954407 64.868843,233.945190 62.325378,236.838486 
z"/>
<path fill="#FDFDFD" opacity="1.000000" stroke="none" 
	d="
M240.346786,118.399429 
	C243.484528,116.822372 246.361557,115.529015 248.988052,113.844910 
	C252.148773,111.818245 254.297852,111.861870 255.041687,116.013313 
	C255.361252,117.796951 255.602173,119.622940 255.606644,121.430367 
	C255.648193,138.261276 255.271606,155.103378 255.789261,171.918457 
	C256.029205,179.712784 252.120987,184.134018 246.214966,187.340775 
	C232.719757,194.668121 217.742325,196.907364 202.818924,199.127792 
	C180.563354,202.439163 158.115280,202.867661 135.741898,201.811234 
	C118.431938,200.993881 101.069519,199.126724 84.004242,196.154251 
	C74.775757,194.546799 65.920662,190.076965 57.282467,186.068100 
	C52.078571,183.653030 49.603863,178.726440 49.664288,172.566559 
	C49.829384,155.737183 49.671768,138.904861 49.744720,122.074142 
	C49.753929,119.950401 49.943974,117.623215 50.828976,115.760216 
	C51.888607,113.529617 53.591682,111.416344 56.716267,113.547112 
	C67.092407,120.622963 79.066002,122.794945 91.110336,125.137947 
	C111.398094,129.084564 131.924591,130.349976 152.444427,130.268936 
	C173.613831,130.185349 194.893875,129.663132 215.722061,125.003761 
	C223.882263,123.178284 231.895126,120.694176 240.346786,118.399429 
M71.185493,156.583344 
	C70.118904,153.136383 68.050125,150.654663 64.407692,152.768265 
	C62.893593,153.646881 61.982418,156.516006 61.904243,158.523102 
	C61.864151,159.552628 64.708954,161.832947 65.470596,161.537659 
	C67.590973,160.715591 69.303757,158.842194 71.185493,156.583344 
z"/>
<path fill="#14171D" opacity="1.000000" stroke="none" 
	d="
M82.518539,41.525745 
	C76.516701,40.009735 70.899002,38.661476 65.414597,36.898552 
	C63.926476,36.420208 62.840889,34.689590 61.570541,33.533733 
	C62.635105,32.371544 63.505074,30.532402 64.796967,30.161037 
	C71.385109,28.267221 78.000381,25.956320 84.757355,25.261343 
	C102.042633,23.483500 119.399216,22.348520 136.744904,21.229443 
	C145.687515,20.652502 154.694611,20.087343 163.625717,20.509050 
	C188.231613,21.670887 212.906982,22.445040 237.077377,27.992702 
	C237.400879,28.066957 237.808945,28.012415 238.044647,28.192215 
	C240.220505,29.852198 242.367065,31.550596 244.522156,33.237816 
	C242.432114,34.842838 240.546188,37.382626 238.216751,37.891273 
	C228.064896,40.108006 217.849442,42.643116 207.536423,43.384712 
	C186.354996,44.907833 165.081711,46.300552 143.873459,45.974762 
	C123.548653,45.662544 103.258301,43.107117 82.518539,41.525745 
z"/>
<path fill="#23262C" opacity="1.000000" stroke="none" 
	d="
M59.788170,73.419914 
	C59.802338,70.961708 59.612869,68.535172 60.553673,66.682632 
	C60.956417,65.889587 64.505463,65.546188 65.226639,66.313194 
	C66.539757,67.709770 67.865578,70.491783 67.298660,71.973648 
	C66.040237,75.263000 63.102913,75.757523 59.788170,73.419914 
z"/>
<path fill="#1E2127" opacity="1.000000" stroke="none" 
	d="
M62.565639,236.558975 
	C64.868843,233.945190 67.376762,232.954407 69.341728,235.877304 
	C70.394562,237.443359 71.006500,240.554245 70.140419,241.825729 
	C69.193542,243.215805 66.016205,244.246109 64.334564,243.729385 
	C61.058464,242.722748 60.888805,239.775604 62.565639,236.558975 
z"/>
<path fill="#202229" opacity="1.000000" stroke="none" 
	d="
M71.181496,156.983673 
	C69.303757,158.842194 67.590973,160.715591 65.470596,161.537659 
	C64.708954,161.832947 61.864151,159.552628 61.904243,158.523102 
	C61.982418,156.516006 62.893593,153.646881 64.407692,152.768265 
	C68.050125,150.654663 70.118904,153.136383 71.181496,156.983673 
z"/>
</svg>